<?xml version="1.0" encoding="iso-8859-1"?>
<!-- Generator: Adobe Illustrator 16.0.0, SVG Export Plug-In . SVG Version: 6.00 Build 0)  -->
<!DOCTYPE svg PUBLIC "-//W3C//DTD SVG 1.1//EN" "http://www.w3.org/Graphics/SVG/1.1/DTD/svg11.dtd">
<svg xmlns="http://www.w3.org/2000/svg" xmlns:xlink="http://www.w3.org/1999/xlink" version="1.1" id="Capa_1" x="0px" y="0px" width="512px" height="512px" viewBox="0 0 47 47" style="enable-background:new 0 0 47 47;" xml:space="preserve">
<g>
	<g>
		<path d="M23.5,0C10.542,0,0,10.541,0,23.5S10.542,47,23.5,47S47,36.459,47,23.5S36.458,0,23.5,0z M23.5,42.299    c-10.366,0-18.8-8.433-18.8-18.799S13.134,4.701,23.5,4.701S42.3,13.134,42.3,23.5S33.866,42.299,23.5,42.299z" fill="#0956b5"/>
		<path d="M30.242,15.779c0-3.721-3.025-6.747-6.745-6.747c-3.718,0-6.742,3.026-6.742,6.747v4.857H13.63V37.97h19.74V20.637h-3.128    V15.779z M26.868,20.637h-6.736V15.78c0-1.863,1.511-3.372,3.366-3.372c1.857,0,3.371,1.509,3.371,3.372L26.868,20.637    L26.868,20.637z" fill="#0956b5"/>
	</g>
</g>
<g>
</g>
<g>
</g>
<g>
</g>
<g>
</g>
<g>
</g>
<g>
</g>
<g>
</g>
<g>
</g>
<g>
</g>
<g>
</g>
<g>
</g>
<g>
</g>
<g>
</g>
<g>
</g>
<g>
</g>
</svg>
